<?xml version="1.0" encoding="utf-8"?>
<!-- Generator: Adobe Illustrator 23.0.2, SVG Export Plug-In . SVG Version: 6.00 Build 0)  -->
<!DOCTYPE svg PUBLIC "-//W3C//DTD SVG 1.1//EN" "http://www.w3.org/Graphics/SVG/1.1/DTD/svg11.dtd" [
	<!ENTITY ns_extend "http://ns.adobe.com/Extensibility/1.0/">
	<!ENTITY ns_ai "http://ns.adobe.com/AdobeIllustrator/10.0/">
	<!ENTITY ns_graphs "http://ns.adobe.com/Graphs/1.0/">
	<!ENTITY ns_vars "http://ns.adobe.com/Variables/1.0/">
	<!ENTITY ns_imrep "http://ns.adobe.com/ImageReplacement/1.0/">
	<!ENTITY ns_sfw "http://ns.adobe.com/SaveForWeb/1.0/">
	<!ENTITY ns_custom "http://ns.adobe.com/GenericCustomNamespace/1.0/">
	<!ENTITY ns_adobe_xpath "http://ns.adobe.com/XPath/1.0/">
]>
<svg version="1.1" id="Layer_1" xmlns:x="&ns_extend;" xmlns:i="&ns_ai;" xmlns:graph="&ns_graphs;"
	 xmlns="http://www.w3.org/2000/svg" xmlns:xlink="http://www.w3.org/1999/xlink" x="0px" y="0px" viewBox="0 0 68.3 48"
	 style="enable-background:new 0 0 68.3 48;" xml:space="preserve">
<style type="text/css">
	.st0{fill:#FFC400;}
	.st1{fill:#FFFFFF;}
</style>
<metadata>
	<sfw  xmlns="&ns_sfw;">
		<slices></slices>
		<sliceSourceBounds  bottomLeftOrigin="true" height="48" width="68" x="0" y="0"></sliceSourceBounds>
	</sfw>
</metadata>
<path class="st0" d="M5.1,31.7c0,0,18.2,1.1,36.2-19c0.8-0.9,1.6-1.8,2.4-2.6C39.4,4.1,32.3,0.2,24.2,0.2C11,0.2,0.3,10.9,0.3,24.1
	S11,48,24.2,48c13.2,0,23.9-10.7,23.9-23.9c0-3.1-0.6-6.1-1.7-8.8c0,0,0,0.1-0.1,0.1C28.6,36.2,5.1,31.7,5.1,31.7z"/>
<path class="st0" d="M43.7,10.2c1.1,1.5,2,3.2,2.7,5C59.3,0.1,68.3,0.9,68.3,0.9S58.2-4.2,43.7,10.2z"/>
<path class="st1" d="M16.4,15.3c0,0,13.3-1.5,24.5-4.5l-3,3.2C37.9,14,26.5,15.9,16.4,15.3z"/>
<path class="st1" d="M11.3,20.3c0,0,15.2-1.6,24.8-4.6l-4,3.3C32.1,19,21.5,21.1,11.3,20.3z"/>
<path class="st1" d="M46.4,15.2C46.4,15.3,46.4,15.3,46.4,15.2C28.6,36.2,5.1,31.7,5.1,31.7s18.2,1.1,36.2-19
	c0.3-0.4,1.3-1.4,2.4-2.6C44.8,11.8,45.7,13.4,46.4,15.2z"/>
</svg>
